<?xml version="1.0" encoding="utf-8"?>
<!-- Generator: Adobe Illustrator 24.2.1, SVG Export Plug-In . SVG Version: 6.00 Build 0)  -->
<svg version="1.1" id="Layer_1" xmlns="http://www.w3.org/2000/svg" xmlns:xlink="http://www.w3.org/1999/xlink" x="0px" y="0px"
	 viewBox="0 0 143 46" style="enable-background:new 0 0 143 46;" xml:space="preserve">
<style type="text/css">
	.st0{fill:#FF4141;}
	.st1{opacity:0.2;fill-rule:evenodd;clip-rule:evenodd;fill:#FFFFFF;enable-background:new    ;}
	.st2{fill:url(#SVGID_1_);}
	.st3{fill:#FFFFFF;}
	.st4{fill:#485A76;}
	.st5{fill:#364659;}
	.st6{fill:#627693;}
	.st7{fill:#ECEDF2;}
	.st8{fill:#DDE1EB;}
	.st9{fill:url(#SVGID_2_);}
	.st10{opacity:0.15;fill-rule:evenodd;clip-rule:evenodd;fill:#FFFFFF;enable-background:new    ;}
	.st11{fill:#1F1E1E;}
</style>
<g>
	<path class="st0" d="M0,17.6c0-1.6,1.3-2.9,2.8-2.9s2.8,1.3,2.8,2.9c0,1.6-1.3,2.9-2.8,2.9S0,19.1,0,17.6z"/>
	<path class="st1" d="M2.7,16.2c-0.7,0-1.3,0.6-1.3,1.3c0,0.3-0.2,0.5-0.5,0.5c-0.3,0-0.5-0.2-0.5-0.5c0-1.3,1.1-2.3,2.3-2.3
		c0.3,0,0.5,0.2,0.5,0.5C3.2,16,3,16.2,2.7,16.2z"/>
	<path class="st0" d="M8.3,8C8.3,7.1,9,6.3,10,6.3c0.9,0,1.6,0.7,1.6,1.6c0,1-0.7,1.6-1.6,1.6C9,9.6,8.3,8.8,8.3,8z"/>
	<path class="st1" d="M9.7,7.3c-0.2,0-0.4,0.2-0.4,0.5c0,0.3-0.2,0.5-0.5,0.5c-0.3,0-0.5-0.2-0.5-0.5c0-0.8,0.6-1.5,1.4-1.5
		c0.3,0,0.5,0.2,0.5,0.5C10.2,7.1,10,7.3,9.7,7.3z"/>
	<path class="st0" d="M14.3,3.6c0-2,1.6-3.6,3.6-3.6c2,0,3.6,1.6,3.6,3.6c0,2-1.6,3.6-3.6,3.6C15.9,7.3,14.3,5.6,14.3,3.6z"/>
	<path class="st1" d="M17.5,1.5c-0.9,0-1.7,0.8-1.7,1.7c0,0.3-0.2,0.5-0.5,0.5c-0.3,0-0.5-0.2-0.5-0.5c0-1.5,1.2-2.7,2.7-2.7
		C17.8,0.5,18,0.8,18,1C18,1.3,17.8,1.5,17.5,1.5z"/>
	<path class="st0" d="M31.7,5.9c0-1.6,1.3-2.9,2.8-2.9c1.5,0,2.8,1.3,2.8,2.9S36,8.7,34.5,8.7C32.9,8.6,31.7,7.4,31.7,5.9z"/>
	<path class="st1" d="M33.9,4c0-0.3,0.2-0.5,0.5-0.5c1.3,0,2.4,1.1,2.4,2.4c0,0.3-0.2,0.5-0.5,0.5s-0.5-0.2-0.5-0.5
		c0-0.8-0.6-1.4-1.4-1.4C34.1,4.5,33.9,4.3,33.9,4z"/>
	<path class="st0" d="M40.7,14.1c0-0.9,0.7-1.6,1.6-1.6c0.9,0,1.6,0.7,1.6,1.6c0,1-0.7,1.6-1.6,1.6C41.5,15.7,40.7,15,40.7,14.1z"/>
	<path class="st1" d="M41.8,13.1c0-0.3,0.2-0.5,0.5-0.5c0.8,0,1.4,0.7,1.4,1.5c0,0.3-0.2,0.5-0.5,0.5c-0.3,0-0.5-0.2-0.5-0.5
		c0-0.3-0.2-0.5-0.4-0.5C42,13.6,41.8,13.4,41.8,13.1z"/>
	
		<linearGradient id="SVGID_1_" gradientUnits="userSpaceOnUse" x1="4.7177" y1="17.6021" x2="20.55" y2="17.6021" gradientTransform="matrix(1 0 0 -1 0 47)">
		<stop  offset="0" style="stop-color:#F26533"/>
		<stop  offset="0.9832" style="stop-color:#F47726"/>
	</linearGradient>
	<path class="st2" d="M12.6,37.4c4.4,0,7.9-3.6,7.9-8c0-4.4-3.5-8-7.9-8c-4.4,0-7.9,3.6-7.9,8C4.7,33.8,8.2,37.4,12.6,37.4z"/>
	<path class="st0" d="M38.8,38.9c4.4,0,7.9-3.6,7.9-8c0-4.4-3.5-8-7.9-8c-4.4,0-7.9,3.6-7.9,8C30.9,35.3,34.4,38.9,38.8,38.9z"/>
	<path class="st0" d="M36.3,30.9c4.4,0,7.9-3.6,7.9-8c0-4.4-3.5-8-7.9-8c-4.4,0-7.9,3.6-7.9,8C28.4,27.3,32,30.9,36.3,30.9z"/>
	<path class="st0" d="M25.5,24.4c4.7,0,8.4-3.8,8.4-8.6s-3.8-8.6-8.4-8.6c-4.7,0-8.4,3.8-8.4,8.6S20.8,24.4,25.5,24.4z"/>
	<path class="st0" d="M15.6,27.4c4.4,0,7.9-3.6,7.9-8c0-4.4-3.5-8-7.9-8c-4.4,0-7.9,3.6-7.9,8C7.7,23.8,11.2,27.4,15.6,27.4z"/>
	<path class="st0" d="M12.3,40.4c5,0,9.1-4.1,9.1-9.3s-4.1-9.3-9.1-9.3c-5,0-9.1,4.1-9.1,9.3S7.3,40.4,12.3,40.4z"/>
	<path class="st3" d="M25.1,46c7.2,0,13.1-6,13.1-13.3c0-7.4-5.9-13.3-13.1-13.3c-7.2,0-13.1,6-13.1,13.3C12,40,17.9,46,25.1,46z"/>
	<path class="st4" d="M36.9,29.5L36.4,30h-3.2c-1.9,0-3.7-0.8-4.9-2.1c-0.8-0.9-2-1.9-3.1-1.9s-2.3,0.5-3.1,1.4
		c-1.2,1.3-3,2.1-4.9,2.1h-4v0.1l-1.5,0.5v5H14l0.2,0.6c0.9-0.4,1.6-0.7,2.1-0.8c0.5-0.2,0.9-0.2,1.2-0.2c3.1,0,5.5,2.9,5,6
		c-0.1,0.9-0.4,1.6-0.9,2.3h-1.4v1.6h5l3.4-0.6l-0.3-0.8L28.2,43c-0.5-0.7-0.9-1.5-0.9-2.3c-0.5-3.5,3.1-7.3,6.8-6.4
		c0.4,0.1,1.1,0.3,2,0.7l0.3,0.4l1.4-0.1l0.6-6.1L36.9,29.5z"/>
	<path class="st5" d="M29.2,43h-0.4c-0.5-0.7-0.9-1.5-0.9-2.3c-0.4-3.2,2-6,5-6c0.3,0,0.7,0,1.2,0.2c0.4,0.1,1.1,0.3,2,0.7l-0.3,0.6
		l2.5-0.3v-7.3h-2l0.2,0.9h-3.2c-1.9,0-3.7-0.8-4.9-2.1c-0.8-0.9-2-1.4-3.1-1.4v18.5h4L29.2,43L29.2,43z"/>
	<path class="st6" d="M34.8,20.8c-2.7-2.8-8.2-4.3-9.7-4.3c-8,0-14.6,6.7-14.6,14.8c0,3.9,1.5,7.6,4.3,10.5
		c2.7,2.8,6.4,4.3,10.3,4.3c2,0,7-1.6,9.7-4.3C40.5,35.8,40.5,26.5,34.8,20.8z M25.1,42.5c-6.1,0-11.1-5-11.1-11.2S19,20,25.1,20
		c7.3,0,11.7,5,11.7,11.2S32.4,42.5,25.1,42.5z"/>
	<path class="st4" d="M39.7,31.2c0-8.1-6.6-14.8-14.6-14.8v3.5c6.1,0,11.1,5,11.1,11.2s-4.9,11.2-11.1,11.2v3.5
		C33.1,45.9,39.7,39.3,39.7,31.2z"/>
	<path class="st7" d="M25.1,34.7c1.4,0,2.6-1.2,2.6-2.6c0-1.4-1.1-2.6-2.6-2.6c-1.4,0-2.6,1.2-2.6,2.6
		C22.6,33.5,23.7,34.7,25.1,34.7z"/>
	<path class="st8" d="M27.7,32.1c0-1.5-1.1-2.6-2.6-2.6v5.2C26.6,34.7,27.7,33.5,27.7,32.1z"/>
	
		<linearGradient id="SVGID_2_" gradientUnits="userSpaceOnUse" x1="24.2923" y1="14.921" x2="25.9967" y2="14.921" gradientTransform="matrix(1 0 0 -1 0 47)">
		<stop  offset="0" style="stop-color:#F26533"/>
		<stop  offset="0.9832" style="stop-color:#F47726"/>
	</linearGradient>
	<path class="st9" d="M25.1,32.9c0.5,0,0.9-0.4,0.9-0.9c0-0.5-0.4-0.9-0.9-0.9s-0.9,0.4-0.9,0.9C24.3,32.6,24.6,32.9,25.1,32.9z"/>
	<path class="st10" d="M15.3,14c-2.8,0-5.1,2.3-5.1,5.2c0,0.6-0.4,1-1,1c-0.6,0-1-0.4-1-1c0-4,3.2-7.2,7.1-7.2c0.6,0,1,0.4,1,1
		C16.3,13.5,15.9,14,15.3,14z"/>
	<path class="st10" d="M30.9,13.5c-1-3.1-4.3-4.9-7.3-3.9c-0.5,0.2-1.1-0.1-1.3-0.6c-0.2-0.5,0.1-1.1,0.6-1.3c4.1-1.4,8.5,1,9.9,5.1
		c0.2,0.5-0.1,1.1-0.6,1.3C31.6,14.4,31.1,14.1,30.9,13.5z"/>
	<path class="st10" d="M10,25.2c0.1,0.5-0.2,1.1-0.8,1.2c-2.3,0.5-3.8,2.9-3.3,5.3c0.1,0.5-0.2,1.1-0.8,1.2C4.6,33,4.1,32.7,4,32.1
		c-0.7-3.4,1.4-6.9,4.9-7.7C9.4,24.4,9.9,24.7,10,25.2z"/>
	<g>
		<path class="st11" d="M55.4,34.7c-1.1-0.6-2-1.4-2.7-2.5c-0.6-1.1-0.9-2.3-0.9-3.7v-7.5c0-1.4,0.3-2.6,0.9-3.7
			c0.6-1.1,1.5-1.9,2.7-2.5c1.1-0.6,2.5-0.9,4-0.9c1.5,0,2.8,0.3,4,0.8c1.1,0.6,2,1.4,2.7,2.4c0.6,1,0.9,2.2,0.9,3.6
			c0,0.1,0,0.2-0.1,0.3c-0.1,0.1-0.2,0.1-0.3,0.1l-2.8,0.2c-0.2,0-0.4-0.1-0.4-0.3c0-1.2-0.4-2.1-1.1-2.9c-0.7-0.7-1.7-1.1-2.9-1.1
			c-1.2,0-2.2,0.4-3,1.1c-0.7,0.7-1.1,1.7-1.1,2.9v7.7c0,1.2,0.4,2.1,1.1,2.8c0.7,0.7,1.7,1.1,3,1.1c1.2,0,2.2-0.4,2.9-1.1
			s1.1-1.7,1.1-2.9c0-0.2,0.1-0.3,0.4-0.3l2.8,0.1c0.1,0,0.2,0,0.3,0.1c0.1,0.1,0.1,0.1,0.1,0.2c0,1.4-0.3,2.6-0.9,3.6
			c-0.6,1-1.5,1.8-2.7,2.4s-2.5,0.8-4,0.8C57.9,35.6,56.6,35.3,55.4,34.7z"/>
		<path class="st11" d="M79.5,20.4c1,0.4,1.7,1.1,2.2,1.8c0.5,0.8,0.8,1.7,0.8,2.6V35c0,0.1,0,0.2-0.1,0.3c-0.1,0.1-0.2,0.1-0.3,0.1
			h-2.8c-0.1,0-0.2,0-0.3-0.1S79,35.1,79,35v-1c0-0.1,0-0.1-0.1-0.1c0,0-0.1,0-0.1,0c-1,1.1-2.4,1.6-4.3,1.6c-1.5,0-2.8-0.4-3.7-1.1
			c-1-0.8-1.5-1.9-1.5-3.4c0-1.6,0.5-2.8,1.6-3.7c1.1-0.9,2.6-1.3,4.6-1.3h3.2c0.1,0,0.2,0,0.2-0.2v-0.7c0-0.8-0.2-1.4-0.7-1.8
			s-1.2-0.6-2.1-0.6c-0.8,0-1.4,0.1-1.9,0.4c-0.5,0.3-0.8,0.6-0.9,1.1c-0.1,0.2-0.2,0.3-0.4,0.3l-2.9-0.4c-0.1,0-0.2-0.1-0.3-0.1
			c-0.1,0-0.1-0.1-0.1-0.2c0.2-1.2,0.8-2.2,2-3c1.2-0.8,2.6-1.2,4.4-1.2C77.4,19.7,78.5,19.9,79.5,20.4z M77.9,32
			c0.7-0.5,1.1-1.2,1.1-2v-1.4c0-0.1,0-0.2-0.2-0.2h-2.5c-1.1,0-1.9,0.2-2.5,0.6c-0.6,0.4-0.9,1-0.9,1.7c0,0.6,0.2,1.1,0.7,1.5
			c0.5,0.4,1.1,0.5,1.8,0.5C76.4,32.8,77.2,32.6,77.9,32z"/>
		<path class="st11" d="M94.9,20.2c0.2,0.1,0.2,0.2,0.2,0.5l-0.5,2.7c0,0.2-0.2,0.3-0.4,0.2c-0.3-0.1-0.7-0.2-1.1-0.2
			c-0.3,0-0.5,0-0.6,0c-0.8,0-1.5,0.3-2.1,0.9c-0.6,0.6-0.8,1.3-0.8,2.2V35c0,0.1,0,0.2-0.1,0.3c-0.1,0.1-0.2,0.1-0.3,0.1h-2.8
			c-0.1,0-0.2,0-0.3-0.1S86,35.1,86,35V20.3c0-0.1,0-0.2,0.1-0.3c0.1-0.1,0.2-0.1,0.3-0.1h2.8c0.1,0,0.2,0,0.3,0.1
			c0.1,0.1,0.1,0.2,0.1,0.3v1.4c0,0.1,0,0.1,0,0.1c0,0,0.1,0,0.1-0.1c0.8-1.3,2-2,3.5-2C93.8,19.8,94.4,19.9,94.9,20.2z"/>
		<path class="st11" d="M99.6,35c-1-0.4-1.7-0.9-2.2-1.5c-0.5-0.7-0.8-1.4-0.8-2.2V31c0-0.1,0-0.2,0.1-0.3c0.1-0.1,0.2-0.1,0.3-0.1
			h2.7c0.1,0,0.2,0,0.3,0.1c0.1,0.1,0.1,0.2,0.1,0.3v0.1c0,0.5,0.3,0.9,0.8,1.3c0.6,0.4,1.3,0.6,2.1,0.6c0.8,0,1.5-0.2,2-0.5
			s0.8-0.8,0.8-1.3c0-0.5-0.2-0.8-0.6-1c-0.4-0.2-1.1-0.5-2-0.7l-1.1-0.4c-1-0.3-1.9-0.6-2.6-1c-0.7-0.3-1.3-0.8-1.8-1.4
			c-0.5-0.6-0.7-1.4-0.7-2.3c0-1.4,0.6-2.5,1.7-3.4c1.1-0.8,2.6-1.3,4.4-1.3c1.2,0,2.3,0.2,3.2,0.6s1.6,0.9,2.1,1.6s0.8,1.5,0.8,2.4
			c0,0.1,0,0.2-0.1,0.3s-0.2,0.1-0.3,0.1H106c-0.1,0-0.2,0-0.3-0.1s-0.1-0.2-0.1-0.3c0-0.5-0.3-1-0.8-1.3c-0.5-0.4-1.2-0.5-2.1-0.5
			c-0.8,0-1.4,0.1-1.9,0.4c-0.5,0.3-0.7,0.7-0.7,1.2c0,0.5,0.2,0.9,0.7,1.1s1.3,0.5,2.4,0.8l0.7,0.2c1.1,0.3,2,0.6,2.7,1
			s1.3,0.8,1.8,1.4c0.5,0.6,0.8,1.4,0.8,2.3c0,1.4-0.6,2.6-1.7,3.4c-1.1,0.8-2.6,1.2-4.5,1.2C101.6,35.6,100.5,35.4,99.6,35z"/>
		<path class="st11" d="M125.7,27.7c0,1.4-0.2,2.7-0.5,3.7c-0.4,1.3-1.2,2.4-2.1,3.1c-1,0.7-2.2,1.1-3.7,1.1c-1.4,0-2.6-0.5-3.4-1.5
			c0,0-0.1,0-0.1,0c0,0-0.1,0.1-0.1,0.1v6.6c0,0.1,0,0.2-0.1,0.3c-0.1,0.1-0.2,0.1-0.3,0.1h-2.8c-0.1,0-0.2,0-0.3-0.1
			c-0.1-0.1-0.1-0.2-0.1-0.3V20.3c0-0.1,0-0.2,0.1-0.3c0.1-0.1,0.2-0.1,0.3-0.1h2.8c0.1,0,0.2,0,0.3,0.1c0.1,0.1,0.1,0.2,0.1,0.3
			v0.9c0,0.1,0,0.1,0.1,0.1c0,0,0.1,0,0.1-0.1c0.9-1,2-1.6,3.5-1.6c1.4,0,2.6,0.4,3.6,1.1c1,0.7,1.7,1.8,2.1,3.1
			C125.5,25,125.7,26.2,125.7,27.7z M122.1,27.6c0-1.5-0.2-2.6-0.7-3.5c-0.6-1-1.4-1.5-2.6-1.5c-1,0-1.8,0.5-2.4,1.4
			c-0.5,0.8-0.7,2-0.7,3.5c0,1.6,0.3,2.8,0.8,3.6c0.5,0.9,1.3,1.3,2.3,1.3c1.1,0,1.9-0.4,2.4-1.3C121.8,30.4,122.1,29.2,122.1,27.6z
			"/>
		<path class="st11" d="M138.3,20.4c1,0.4,1.7,1.1,2.2,1.8c0.5,0.8,0.8,1.7,0.8,2.6V35c0,0.1,0,0.2-0.1,0.3
			c-0.1,0.1-0.2,0.1-0.3,0.1h-2.8c-0.1,0-0.2,0-0.3-0.1s-0.1-0.2-0.1-0.3v-1c0-0.1,0-0.1-0.1-0.1c0,0-0.1,0-0.1,0
			c-1,1.1-2.4,1.6-4.3,1.6c-1.5,0-2.8-0.4-3.7-1.1c-1-0.8-1.5-1.9-1.5-3.4c0-1.6,0.5-2.8,1.6-3.7c1.1-0.9,2.6-1.3,4.6-1.3h3.2
			c0.1,0,0.2,0,0.2-0.2v-0.7c0-0.8-0.2-1.4-0.7-1.8s-1.2-0.6-2.1-0.6c-0.8,0-1.4,0.1-1.9,0.4c-0.5,0.3-0.8,0.6-0.9,1.1
			c-0.1,0.2-0.2,0.3-0.4,0.3l-2.9-0.4c-0.1,0-0.2-0.1-0.3-0.1c-0.1,0-0.1-0.1-0.1-0.2c0.2-1.2,0.8-2.2,2-3c1.2-0.8,2.6-1.2,4.4-1.2
			C136.2,19.7,137.3,19.9,138.3,20.4z M136.8,32c0.7-0.5,1.1-1.2,1.1-2v-1.4c0-0.1,0-0.2-0.2-0.2h-2.5c-1.1,0-1.9,0.2-2.5,0.6
			c-0.6,0.4-0.9,1-0.9,1.7c0,0.6,0.2,1.1,0.7,1.5c0.5,0.4,1.1,0.5,1.8,0.5C135.2,32.8,136,32.6,136.8,32z"/>
	</g>
</g>
</svg>
